<svg width="26" height="31" viewBox="0 0 26 31" fill="none" xmlns="http://www.w3.org/2000/svg">
<path d="M25.4975 22.24C24.8075 23.7725 24.475 24.4575 23.5875 25.81C22.345 27.7 20.5925 30.06 18.4275 30.075C16.5 30.0925 16.0025 28.8175 13.385 28.84C10.77 28.8525 10.225 30.1 8.29503 30.08C6.12753 30.06 4.47003 27.935 3.22753 26.0475C-0.247474 20.755 -0.614973 14.55 1.53253 11.25C3.05253 8.91001 5.45503 7.53502 7.71253 7.53502C10.0125 7.53502 11.4575 8.79751 13.3575 8.79751C15.2025 8.79751 16.325 7.53251 18.985 7.53251C20.995 7.53251 23.12 8.62751 24.64 10.5175C19.67 13.2425 20.4775 20.34 25.4975 22.24ZM16.965 5.42001C17.9325 4.17751 18.6675 2.42501 18.4 0.640015C16.8225 0.747515 14.9775 1.75501 13.9 3.06001C12.9225 4.25001 12.1125 6.01502 12.4275 7.72251C14.15 7.77751 15.9325 6.75001 16.965 5.42001Z" fill="black"/>
</svg>
