<svg width="358" height="354" viewBox="0 0 358 354" fill="none" xmlns="http://www.w3.org/2000/svg">
<g filter="url(#filter0_d_95_16)">
<path d="M178.507 257.014C241.748 257.014 293.014 206.643 293.014 144.507C293.014 82.3712 241.748 32 178.507 32C115.267 32 64 82.3712 64 144.507C64 206.643 115.267 257.014 178.507 257.014Z" fill="url(#paint0_radial_95_16)"/>
</g>
<path d="M261.009 89.6071H257.133V126.045H261.009V89.6071Z" fill="#F7F7F7"/>
<path d="M259.079 89.6071H257.849V126.045H259.079V89.6071Z" fill="#E5E5E5"/>
<path d="M259.078 91.6696C262.333 91.6696 264.97 89.0276 264.97 85.7685C264.97 82.5094 262.333 79.8674 259.078 79.8674C255.824 79.8674 253.187 82.5094 253.187 85.7685C253.187 89.0276 255.824 91.6696 259.078 91.6696Z" fill="#B9D5A6"/>
<path d="M263.083 124.756H249.568V162.468H263.083C269.904 162.468 276.583 154.032 276.583 143.605C276.583 133.192 269.904 124.756 263.083 124.756Z" fill="#76B536"/>
<path d="M108.218 162.468V124.756H94.7041C87.8826 124.756 81.2041 133.192 81.2041 143.619C81.2041 154.032 87.8826 162.483 94.7041 162.483H108.218V162.468Z" fill="#76B536"/>
<path d="M91.0285 143.605C91.0285 133.192 97.707 124.741 104.529 124.741H98.4077C91.5862 124.741 84.9077 133.178 84.9077 143.605C84.9077 154.018 91.5862 162.468 98.4077 162.468H104.529C97.707 162.468 91.0285 154.018 91.0285 143.605Z" fill="#B9D5A6"/>
<path d="M106.474 124.756H102.255V162.454H106.474V124.756Z" fill="#345018"/>
<path d="M266.758 143.605C266.758 133.192 260.079 124.741 253.258 124.741H259.379C266.2 124.741 272.879 133.178 272.879 143.605C272.879 154.018 266.2 162.468 259.379 162.468H253.258C260.079 162.468 266.758 154.018 266.758 143.605Z" fill="#D3E4C8"/>
<path d="M251.304 162.468H255.522V124.77H251.304V162.468Z" fill="#345018"/>
<path d="M111.15 167.983H116.656V119.227H111.15C107.274 119.227 104.143 122.364 104.143 126.245V160.979C104.143 164.846 107.289 167.983 111.15 167.983Z" fill="#F7F7F7"/>
<path d="M114.239 167.854C111.393 167.209 109.248 164.373 109.248 160.979V126.245C109.248 122.851 111.393 120.015 114.239 119.37V119.227H112.938C109.491 119.227 106.703 122.364 106.703 126.245V160.979C106.703 164.86 109.491 167.997 112.938 167.997H114.239V167.854Z" fill="#E5E5E5"/>
<path d="M241.131 167.983H246.637C250.512 167.983 253.644 164.846 253.644 160.964V126.245C253.644 122.364 250.512 119.227 246.637 119.227H241.131V167.983Z" fill="#F7F7F7"/>
<path d="M243.619 167.854C246.465 167.209 248.61 164.373 248.61 160.979V126.245C248.61 122.851 246.465 120.015 243.619 119.37V119.227H244.921C248.367 119.227 251.156 122.364 251.156 126.245V160.979C251.156 164.86 248.367 167.997 244.921 167.997H243.619V167.854Z" fill="white"/>
<path d="M178.893 71.0302C150.52 71.0302 125.994 87.0719 114.167 111.077V175.817C125.98 199.823 150.52 208.803 178.893 208.803C207.266 208.803 231.792 199.823 243.619 175.817V111.063C231.792 87.0576 207.266 71.0302 178.893 71.0302Z" fill="#F7F7F7"/>
<path d="M131.386 175.803V111.063C140.067 87.0576 158.071 71.0159 178.893 71.0159C160.188 71.0159 143.299 79.1943 131.186 92.6293C123.377 101.295 119.159 112.366 119.159 123.782V159.761C119.159 181.303 134.175 200.324 155.969 206.053C163.12 207.929 170.828 208.774 178.879 208.774C158.071 208.789 140.067 199.808 131.386 175.803Z" fill="#E5E5E5"/>
<path d="M178.893 71.0302C199.715 71.0302 217.72 87.0719 226.401 111.077V175.817C217.72 199.823 199.715 208.803 178.893 208.803C186.944 208.803 194.667 207.958 201.803 206.082C223.598 200.367 238.614 181.332 238.614 159.79V123.796C238.614 112.381 234.395 101.295 226.587 92.6436C214.488 79.2086 197.599 71.0302 178.893 71.0302Z" fill="white"/>
<path d="M233.737 163.442C233.022 167.367 229.547 170.761 226.258 170.976C194.681 172.967 163.105 172.967 131.529 170.976C128.239 170.761 124.764 167.367 124.049 163.442C121.404 148.718 121.404 134.008 124.049 119.284C124.764 115.36 128.239 111.965 131.529 111.75C163.105 109.76 194.681 109.76 226.258 111.75C229.547 111.965 233.022 115.36 233.737 119.284C236.383 133.994 236.383 148.718 233.737 163.442Z" fill="url(#paint1_linear_95_16)"/>
<path d="M178.893 172.466C177.049 172.466 175.204 172.451 173.359 172.451C175.204 172.451 177.049 172.466 178.893 172.466Z" fill="#0A0A11"/>
<path opacity="0.3" d="M124.049 123.195C124.764 119.413 128.239 116.133 131.529 115.933C163.105 114.014 194.681 114.014 226.258 115.933C229.547 116.148 233.022 119.413 233.737 123.195C235.024 130.113 235.682 134.997 235.71 141.915C235.739 134.366 235.081 126.818 233.737 119.27C233.022 115.346 229.547 111.951 226.258 111.736C194.681 109.745 163.105 109.745 131.529 111.736C128.239 111.951 124.764 115.346 124.049 119.27C122.691 126.818 122.033 134.366 122.076 141.915C122.104 134.997 122.762 130.113 124.049 123.195Z" fill="#161913"/>
<path d="M178.893 172.466C180.738 172.466 182.583 172.451 184.428 172.451C182.583 172.451 180.738 172.466 178.893 172.466Z" fill="#0A0A11"/>
<path d="M185.343 172.437C186.687 172.423 188.017 172.408 189.361 172.394C188.017 172.408 186.673 172.423 185.343 172.437Z" fill="#0A0A11"/>
<path d="M164.478 172.322C164.292 172.322 164.092 172.308 163.906 172.308C164.092 172.322 164.292 172.322 164.478 172.322Z" fill="#0A0A11"/>
<path d="M193.309 172.322C193.495 172.322 193.695 172.322 193.881 172.308C193.68 172.322 193.495 172.322 193.309 172.322Z" fill="#0A0A11"/>
<path d="M172.443 172.437C171.099 172.423 169.769 172.408 168.425 172.394C169.769 172.408 171.099 172.423 172.443 172.437Z" fill="#0A0A11"/>
<path d="M188.667 154.977C188.667 158.415 183.919 161.208 178.07 161.208C172.221 161.208 167.473 158.415 167.473 154.977H188.667Z" fill="#F7F7F7"/>
<path d="M161.278 136.15C157.336 132.201 150.943 132.201 147 136.15" stroke="white" stroke-width="4" stroke-linecap="round"/>
<path d="M195.194 136.15C199.137 132.201 205.53 132.201 209.473 136.15" stroke="white" stroke-width="4" stroke-linecap="round"/>
<path d="M263.026 90.137C260.337 88.8909 258.821 85.7828 258.878 82.8036C258.893 81.801 259.078 80.7698 259.55 79.8818C259.393 79.8674 259.236 79.8674 259.078 79.8674C255.832 79.8674 253.187 82.5029 253.187 85.7685C253.187 89.0198 255.818 91.6696 259.078 91.6696C260.594 91.6553 261.982 91.0823 263.026 90.137Z" fill="#76B536"/>
<path d="M111.908 212.054L101.411 173.425C101.211 172.709 100.467 172.294 99.7667 172.509C94.032 174.285 89.7846 176.419 92.6877 187.104C95.505 197.445 104.071 212.269 110.392 213.687C111.336 213.902 112.166 213 111.908 212.054Z" fill="white"/>
<path d="M111.908 212.054L111.879 211.94C111.565 211.31 111.093 210.737 110.606 210.207C105.801 205.05 102.398 200.983 100.21 195.182C98.0359 189.381 97.8929 182.263 99.5375 176.276C99.895 174.972 100.324 173.841 101.025 172.795C100.696 172.494 100.21 172.365 99.752 172.509C94.0174 174.285 89.77 176.419 92.6731 187.104C95.4903 197.445 104.057 212.269 110.378 213.687C111.336 213.902 112.165 213 111.908 212.054Z" fill="#D3E4C8"/>
<defs>
<filter id="filter0_d_95_16" x="0" y="0" width="357.014" height="353.014" filterUnits="userSpaceOnUse" color-interpolation-filters="sRGB">
<feFlood flood-opacity="0" result="BackgroundImageFix"/>
<feColorMatrix in="SourceAlpha" type="matrix" values="0 0 0 0 0 0 0 0 0 0 0 0 0 0 0 0 0 0 127 0" result="hardAlpha"/>
<feOffset dy="32"/>
<feGaussianBlur stdDeviation="32"/>
<feComposite in2="hardAlpha" operator="out"/>
<feColorMatrix type="matrix" values="0 0 0 0 0.290196 0 0 0 0 0.447059 0 0 0 0 0.133333 0 0 0 0.3 0"/>
<feBlend mode="normal" in2="BackgroundImageFix" result="effect1_dropShadow_95_16"/>
<feBlend mode="normal" in="SourceGraphic" in2="effect1_dropShadow_95_16" result="shape"/>
</filter>
<radialGradient id="paint0_radial_95_16" cx="0" cy="0" r="1" gradientUnits="userSpaceOnUse" gradientTransform="translate(459.021 -73.2438) scale(447.056 447.748)">
<stop stop-color="#6FC11C"/>
<stop offset="1" stop-color="#4A7222"/>
</radialGradient>
<linearGradient id="paint1_linear_95_16" x1="118.047" y1="103.973" x2="176.531" y2="218.284" gradientUnits="userSpaceOnUse">
<stop stop-color="#76B536"/>
<stop offset="1" stop-color="#355118"/>
</linearGradient>
</defs>
</svg>
