<svg width="22" height="21" viewBox="0 0 22 21" fill="none" xmlns="http://www.w3.org/2000/svg">
<g clip-path="url(#clip0_184_88)">
<path d="M10.7908 1.7163C11.3418 2.59816 12.9225 5.24825 12.9225 5.24825L11.3813 6.08275L17.0463 6.70975L19.2431 1.97341L17.6228 2.81017L16.0491 0.570558C16.0491 0.570558 15.6911 -0.178234 14.3382 0.0405396L9.14502 0.229993C9.14734 0.227738 10.2376 0.832184 10.7908 1.7163Z" fill="#69A130"/>
<path d="M8.43612 0.520978C6.72522 0.0608773 5.58384 1.98473 5.58384 1.98473L3.21973 5.83469L8.05024 8.10813L11.0234 3.29512C11.0234 3.29737 10.147 0.983335 8.43612 0.520978Z" fill="#69A130"/>
<path d="M19.085 14.1413C18.0203 14.1368 14.8681 14.0579 14.8681 14.0579L14.9402 12.346L11.4277 16.7057L14.4404 21L14.552 19.2227L17.3415 19.0896C17.3415 19.0896 18.1853 19.1844 18.7014 17.9507L21.2492 13.5572C21.2492 13.5594 20.1473 14.1458 19.085 14.1413Z" fill="#69A130"/>
<path d="M21.57 9.69369L19.4221 5.7287L14.8984 8.53441L17.574 13.5076C17.574 13.5076 20.066 13.9925 21.3655 12.8174C22.6626 11.6446 21.57 9.69369 21.57 9.69369Z" fill="#69A130"/>
<path d="M5.9254 11.4755L7.40385 12.4114L5.34425 7.2511L0 7.56234L1.51564 8.56599L0.20224 10.959C0.20224 10.959 -0.313821 11.613 0.513736 12.6753L3.09636 17.0485C3.09636 17.0485 3.14053 15.8306 3.69146 14.9465C4.24007 14.0624 5.9254 11.4755 5.9254 11.4755Z" fill="#69A130"/>
<path d="M5.02579 14.0128C5.02579 14.0128 3.31953 15.8419 3.69379 17.5244C4.06805 19.2069 6.35313 19.2972 6.35313 19.2972L10.9651 19.5407L10.7978 14.333L5.02579 14.0128Z" fill="#69A130"/>
</g>
<defs>
<clipPath id="clip0_184_88">
<rect width="22" height="21" fill="white"/>
</clipPath>
</defs>
</svg>
