<svg width="28" height="29" viewBox="0 0 28 29" fill="none" xmlns="http://www.w3.org/2000/svg">
<g filter="url(#filter0_d_184_96)">
<path d="M4 3H10C11.0609 3 12.0783 3.42143 12.8284 4.17157C13.5786 4.92172 14 5.93913 14 7V21C14 20.2044 13.6839 19.4413 13.1213 18.8787C12.5587 18.3161 11.7956 18 11 18H4V3Z" fill="#69A130"/>
<path d="M24 3H18C16.9391 3 15.9217 3.42143 15.1716 4.17157C14.4214 4.92172 14 5.93913 14 7V21C14 20.2044 14.3161 19.4413 14.8787 18.8787C15.4413 18.3161 16.2044 18 17 18H24V3Z" fill="#69A130"/>
<path d="M16 7.5C16.3333 6.66667 16.8 6 18 6C19.2 6 20.6667 6 21.5 6" stroke="white" stroke-width="0.5" stroke-linecap="round"/>
<path d="M11.5 7.5C11.1667 6.66667 10.7 6 9.5 6C8.3 6 6.83333 6 6 6" stroke="white" stroke-width="0.5" stroke-linecap="round"/>
<path d="M16 11.5C16.3333 10.6667 16.8 10 18 10C19.2 10 20.6667 10 21.5 10" stroke="white" stroke-width="0.5" stroke-linecap="round"/>
<path d="M11.5 11.5C11.1667 10.6667 10.7 10 9.5 10C8.3 10 6.83333 10 6 10" stroke="white" stroke-width="0.5" stroke-linecap="round"/>
<path d="M16 15.5C16.3333 14.6667 16.8 14 18 14C19.2 14 20.6667 14 21.5 14" stroke="white" stroke-width="0.5" stroke-linecap="round"/>
<path d="M11.5 15.5C11.1667 14.6667 10.7 14 9.5 14C8.3 14 6.83333 14 6 14" stroke="white" stroke-width="0.5" stroke-linecap="round"/>
</g>
<defs>
<filter id="filter0_d_184_96" x="-2" y="0" width="32" height="32" filterUnits="userSpaceOnUse" color-interpolation-filters="sRGB">
<feFlood flood-opacity="0" result="BackgroundImageFix"/>
<feColorMatrix in="SourceAlpha" type="matrix" values="0 0 0 0 0 0 0 0 0 0 0 0 0 0 0 0 0 0 127 0" result="hardAlpha"/>
<feOffset dy="4"/>
<feGaussianBlur stdDeviation="2"/>
<feComposite in2="hardAlpha" operator="out"/>
<feColorMatrix type="matrix" values="0 0 0 0 0 0 0 0 0 0 0 0 0 0 0 0 0 0 0.25 0"/>
<feBlend mode="normal" in2="BackgroundImageFix" result="effect1_dropShadow_184_96"/>
<feBlend mode="normal" in="SourceGraphic" in2="effect1_dropShadow_184_96" result="shape"/>
</filter>
</defs>
</svg>
