<svg width="234" height="83" viewBox="0 0 234 83" fill="none" xmlns="http://www.w3.org/2000/svg">
<g clip-path="url(#clip0_103_1115)">
<path d="M33.5793 57C32.3917 56.7829 31.204 56.5724 30.0164 56.3684C29.8334 56.3358 29.6568 56.274 29.3986 56.2056C31.2867 52.6233 32.1953 48.6093 32.0332 44.5666C30.8042 48.392 29.3104 52.0905 27.0125 55.4829C23.4615 54.1974 20.0808 52.4865 16.9449 50.3878C20.2136 48.6037 22.6226 46.0675 24.5609 42.9876C23.3482 43.8797 22.2205 44.7978 21.0079 45.5922C19.0455 46.9091 16.8252 47.7968 14.4933 48.1967C14.196 48.2465 13.8907 48.1876 13.6337 48.0307C10.7745 45.8939 8.1347 43.4805 5.75281 40.8259C5.70051 40.7673 5.66129 40.6989 5.56323 40.5654C8.38346 40.3509 11.132 39.576 13.6467 38.2865C12.7086 38.3483 11.7672 38.4818 10.8291 38.4558C8.54102 38.3907 6.25292 38.267 3.96483 38.1302C3.82587 38.1097 3.69252 38.0613 3.57286 37.988C3.45319 37.9147 3.34969 37.818 3.2686 37.7037C2.23242 36.0271 1.23219 34.3244 0.228702 32.6249C0.00969875 32.2538 -0.0981685 31.8533 0.186209 31.4561C0.470586 31.0589 0.879174 31.0752 1.31391 31.1306C5.92605 31.9054 10.5709 32.4035 15.268 32.2896C19.9651 32.1756 24.5381 31.5147 28.8593 29.5744C29.0096 29.5092 29.1567 29.4311 29.3921 29.3172C28.6011 28.4023 29.0652 27.6405 29.6242 26.8494C31.0068 24.896 31.2781 24.8504 33.259 26.221C34.8541 27.3236 36.4449 28.4327 38.0313 29.5483C39.0969 30.2971 39.2113 30.9971 38.4595 32.078C38.2437 32.4035 38.0149 32.6835 37.8057 33.0026C37.6529 33.2869 37.423 33.5229 37.1421 33.6834C36.8613 33.844 36.5408 33.9228 36.2171 33.9109C36.3577 35.1025 36.5113 36.268 36.629 37.44C37.1258 42.4147 37.4004 47.3958 36.6813 52.3737C36.5134 53.334 36.2952 54.2848 36.0275 55.2224C35.954 55.6342 35.7681 56.0178 35.4902 56.3314C35.2123 56.6449 34.8531 56.8762 34.452 57H33.5793Z" fill="white"/>
<path d="M54.7344 0.533932C55.2607 1.01251 55.3457 1.58876 54.9959 2.35384C54.9159 2.52576 54.8208 2.69027 54.7116 2.84545C47.9192 12.824 46.1247 16.3304 39.329 26.3089C39.2833 26.3773 39.2277 26.4392 39.1264 26.5629L35.0372 23.7174C35.1778 23.5123 35.302 23.3268 35.4295 23.151C42.3885 13.5598 44.9937 10.6558 51.9724 1.08088C52.2993 0.615323 52.7307 0.104185 53.4433 0.00651563C53.5726 -0.00937433 53.7039 0.00626743 53.8257 0.0520948L54.2964 0.270224C54.4578 0.329862 54.6064 0.419334 54.7344 0.533932Z" fill="white"/>
<path d="M62.1054 31.7524C62.0653 29.784 62.6361 27.8512 63.7398 26.2178C64.8806 24.5872 66.4393 23.291 68.2538 22.464C70.3141 21.5184 72.5623 21.0488 74.8305 21.0902C77.3278 21.0902 79.4818 21.5242 81.2927 22.3924C83.0186 23.1892 84.4737 24.4699 85.4799 26.0778C86.4904 27.7784 86.9991 29.7282 86.9476 31.7036H79.4295C79.4541 31.1613 79.3528 30.6207 79.1334 30.1238C78.914 29.6269 78.5824 29.1871 78.1646 28.8386C77.3212 28.1397 76.1815 27.7892 74.7455 27.787C73.2201 27.787 71.9954 28.1126 71.0715 28.7637C70.6307 29.0618 70.2729 29.4663 70.0317 29.9394C69.7905 30.4125 69.6736 30.9389 69.6921 31.4692C69.6921 32.5284 69.9721 33.3368 70.5321 33.8947C71.0922 34.4525 71.9823 34.8562 73.2027 35.1058L78.3999 36.1769C81.4899 36.802 83.7835 37.8872 85.2805 39.4325C86.7776 40.9779 87.5261 43.1147 87.5261 45.8429C87.5708 47.8964 87.0019 49.9168 85.8918 51.6477C84.759 53.3465 83.1573 54.6828 81.2796 55.4959C79.0879 56.4394 76.7174 56.9003 74.3304 56.847C72.0224 56.8975 69.7305 56.4534 67.6099 55.5448C65.777 54.7805 64.2204 53.4797 63.1463 51.8146C62.0723 50.1495 61.5314 48.1987 61.5955 46.2206H69.1331C69.1058 46.776 69.2151 47.3297 69.4515 47.8336C69.6879 48.3374 70.0443 48.7761 70.4896 49.1116C71.3874 49.7953 72.6786 50.1371 74.363 50.1371C76.0475 50.1371 77.4095 49.8115 78.4489 49.1604C78.911 48.901 79.2941 48.522 79.5577 48.0635C79.8212 47.6051 79.9554 47.0841 79.946 46.5559C79.946 45.5922 79.7041 44.8467 79.2203 44.3193C78.7366 43.7918 77.9172 43.4185 76.7623 43.1993L71.4735 42.1282C68.3835 41.5075 66.0507 40.3257 64.4752 38.5828C62.8997 36.8399 62.1098 34.5631 62.1054 31.7524Z" fill="white"/>
<path d="M96.9269 56.2316L89.3893 32.9179H96.9727L99.1268 40.5166C99.4079 41.5128 99.6737 42.5698 99.9243 43.6876C100.175 44.8054 100.393 45.9557 100.578 47.1386C100.735 46.2986 100.876 45.5911 101 45.0159C101.124 44.4408 101.28 43.82 101.467 43.1537C101.657 42.483 101.921 41.6072 102.265 40.5166L104.651 32.9179H112.048L114.248 40.5166C114.309 40.7054 114.41 41.0863 114.552 41.6593C114.693 42.2323 114.858 42.8694 115.045 43.5704C115.231 44.2693 115.394 44.9465 115.536 45.6019C115.676 46.2531 115.778 46.7675 115.84 47.1386C115.934 46.5786 116.098 45.8363 116.333 44.8759C116.569 43.9155 116.801 43.0365 117.036 42.1965C117.271 41.3566 117.415 40.7966 117.477 40.5166L119.726 32.9179H127.355L119.164 56.2316H112.47L110.224 48.8348C109.629 46.9075 109.176 45.2905 108.864 43.9839C108.554 42.6816 108.364 41.7765 108.302 41.2817C108.21 41.7765 108.021 42.5839 107.743 43.6583C107.465 44.7327 106.945 46.52 106.197 48.9748L103.945 56.2316H96.9269Z" fill="white"/>
<path d="M136.439 56.8372C133.974 56.8372 132.013 56.1611 130.555 54.8089C129.098 53.4568 128.372 51.6466 128.378 49.3785C128.378 47.2341 129.119 45.5238 130.601 44.2476C132.083 42.9714 134.232 42.2215 137.047 41.9979L143.601 41.4835V41.1091C143.625 40.4341 143.464 39.7653 143.133 39.1753C142.818 38.6606 142.353 38.2539 141.8 38.0098C141.111 37.7242 140.369 37.5888 139.623 37.6126C138.097 37.6126 136.935 37.8926 136.135 38.4525C135.746 38.7225 135.432 39.0869 135.223 39.5113C135.014 39.9357 134.917 40.406 134.942 40.878H128.95C128.911 39.2363 129.385 37.6231 130.307 36.2615C131.277 34.9045 132.616 33.8527 134.167 33.2305C136.017 32.4833 138 32.1188 139.995 32.1594C142.273 32.1594 144.2 32.5631 145.778 33.3705C147.318 34.1498 148.575 35.3895 149.373 36.9159C150.201 38.4699 150.615 40.3658 150.615 42.6035V56.2186H144.258L143.79 53.142C143.416 54.1969 142.533 55.0748 141.143 55.7759C139.682 56.4966 138.069 56.8604 136.439 56.8372ZM138.966 51.5207C140.171 51.5724 141.358 51.2205 142.339 50.5212C143.211 49.8506 143.647 48.8478 143.647 47.513V46.2531L139.992 46.5786C138.432 46.7024 137.332 46.9596 136.694 47.3502C136.392 47.5179 136.143 47.7653 135.973 48.0652C135.804 48.3651 135.721 48.7057 135.733 49.0497C135.733 49.8896 135.999 50.5115 136.531 50.9152C137.062 51.3189 137.874 51.5207 138.966 51.5207Z" fill="white"/>
<path d="M154.508 44.482C154.466 42.2633 154.998 40.0712 156.055 38.1172C157.047 36.3068 158.516 34.7998 160.304 33.7579C162.19 32.6756 164.338 32.1274 166.514 32.1724C169.979 32.1724 172.788 33.0579 174.941 34.829C177.094 36.6 178.271 39.0092 178.471 42.0565H171.215C170.966 40.8736 170.475 40.0055 169.741 39.452C169.008 38.892 168.015 38.612 166.769 38.612C165.835 38.5938 164.916 38.8448 164.122 39.3348C163.35 39.8251 162.739 40.5304 162.366 41.3631C161.938 42.3485 161.73 43.415 161.758 44.4885C161.73 45.5819 161.93 46.6692 162.343 47.6823C162.687 48.5125 163.275 49.2196 164.03 49.7106C164.825 50.1937 165.744 50.4368 166.675 50.4105C167.954 50.4105 168.976 50.123 169.741 49.5478C170.545 48.9035 171.072 47.9778 171.215 46.9595H178.471C178.352 48.8005 177.732 50.5744 176.677 52.0905C175.615 53.5817 174.189 54.7775 172.532 55.5642C170.706 56.4284 168.703 56.8597 166.681 56.8242C164.216 56.8242 162.071 56.3109 160.245 55.2843C158.44 54.2865 156.964 52.7893 155.996 50.9738C154.965 48.9667 154.454 46.7354 154.508 44.482Z" fill="white"/>
<path d="M189.621 56.2317H182.41V21.0706H189.667V35.3402C190.427 34.3095 191.454 33.5038 192.638 33.0091C193.959 32.4374 195.388 32.1512 196.828 32.1691C199.607 32.1691 201.768 33.0156 203.313 34.7086C204.858 36.4015 205.631 38.7716 205.631 41.8189V56.2284H198.41V43.5314C198.434 42.6498 198.259 41.7742 197.897 40.9692C197.583 40.2901 197.09 39.7093 196.469 39.2893C195.821 38.8741 195.062 38.6631 194.292 38.6837C193.436 38.6646 192.589 38.8653 191.834 39.2665C191.139 39.6482 190.572 40.2229 190.199 40.9203C189.794 41.6976 189.592 42.5645 189.614 43.4402L189.621 56.2317Z" fill="white"/>
<path d="M217.99 56.2317H210.779V21.0706H218.023V35.3402C218.784 34.3102 219.81 33.5046 220.994 33.0091C222.325 32.4345 223.763 32.1492 225.214 32.1724C227.992 32.1724 230.154 33.0189 231.699 34.7118C233.244 36.4048 234.016 38.7749 234.016 41.8222V56.2317H226.789V43.5346C226.813 42.6531 226.638 41.7774 226.276 40.9724C225.963 40.2927 225.469 39.7115 224.848 39.2925C224.2 38.8774 223.441 38.6664 222.671 38.687C221.815 38.6683 220.968 38.869 220.213 39.2697C219.518 39.6515 218.951 40.2261 218.578 40.9236C218.173 41.7008 217.971 42.5678 217.993 43.4435L217.99 56.2317Z" fill="white"/>
</g>
<path d="M3.28495 79H2.42095V70.408H5.62495C6.48895 70.408 7.16895 70.632 7.66495 71.08C8.16895 71.52 8.42095 72.124 8.42095 72.892C8.42095 73.508 8.26495 74.024 7.95295 74.44C7.64895 74.856 7.22095 75.14 6.66895 75.292L8.50495 79H7.54495L5.79295 75.436H3.28495V79ZM3.28495 71.188V74.656H5.64895C6.24095 74.656 6.70095 74.5 7.02895 74.188C7.36495 73.876 7.53295 73.452 7.53295 72.916C7.53295 72.356 7.36095 71.928 7.01695 71.632C6.67295 71.336 6.20895 71.188 5.62495 71.188H3.28495ZM17.9309 79.144C17.3709 79.144 16.8749 79.016 16.4429 78.76C16.0189 78.504 15.6869 78.148 15.4469 77.692C15.2069 77.236 15.0869 76.704 15.0869 76.096C15.0869 75.496 15.2029 74.968 15.4349 74.512C15.6749 74.048 16.0029 73.688 16.4189 73.432C16.8349 73.168 17.3189 73.036 17.8709 73.036C18.3989 73.036 18.8589 73.152 19.2509 73.384C19.6509 73.616 19.9589 73.94 20.1749 74.356C20.3989 74.764 20.5109 75.244 20.5109 75.796V76.204H15.5429L15.5669 75.604H19.6829C19.6829 75.044 19.5149 74.596 19.1789 74.26C18.8509 73.916 18.4149 73.744 17.8709 73.744C17.4709 73.744 17.1189 73.836 16.8149 74.02C16.5189 74.204 16.2909 74.468 16.1309 74.812C15.9709 75.148 15.8909 75.548 15.8909 76.012C15.8909 76.78 16.0669 77.376 16.4189 77.8C16.7789 78.224 17.2869 78.436 17.9429 78.436C18.4149 78.436 18.8029 78.336 19.1069 78.136C19.4109 77.936 19.6149 77.644 19.7189 77.26H20.5109C20.3589 77.868 20.0629 78.336 19.6229 78.664C19.1829 78.984 18.6189 79.144 17.9309 79.144ZM30.1147 79.144C29.5547 79.144 29.0747 79.012 28.6747 78.748C28.2747 78.484 27.9667 78.124 27.7507 77.668C27.5347 77.204 27.4267 76.684 27.4267 76.108C27.4267 75.524 27.5347 75 27.7507 74.536C27.9667 74.072 28.2747 73.708 28.6747 73.444C29.0827 73.172 29.5747 73.036 30.1507 73.036C30.6307 73.036 31.0547 73.14 31.4227 73.348C31.7987 73.556 32.0867 73.872 32.2867 74.296V70.252H33.1147V79H32.3947L32.3107 77.812C32.1027 78.26 31.8067 78.596 31.4227 78.82C31.0387 79.036 30.6027 79.144 30.1147 79.144ZM30.2587 78.388C30.6907 78.388 31.0547 78.292 31.3507 78.1C31.6467 77.9 31.8747 77.628 32.0347 77.284C32.1947 76.932 32.2747 76.532 32.2747 76.084C32.2747 75.636 32.1947 75.24 32.0347 74.896C31.8747 74.552 31.6467 74.28 31.3507 74.08C31.0547 73.88 30.6907 73.78 30.2587 73.78C29.8427 73.78 29.4827 73.88 29.1787 74.08C28.8827 74.28 28.6547 74.552 28.4947 74.896C28.3427 75.24 28.2667 75.636 28.2667 76.084C28.2667 76.532 28.3427 76.932 28.4947 77.284C28.6547 77.628 28.8827 77.9 29.1787 78.1C29.4827 78.292 29.8427 78.388 30.2587 78.388ZM44.9225 73.192H45.7505V79H45.0305L44.9225 78.016C44.7625 78.352 44.4945 78.624 44.1185 78.832C43.7505 79.04 43.3385 79.144 42.8825 79.144C42.2025 79.144 41.6785 78.928 41.3105 78.496C40.9505 78.064 40.7705 77.496 40.7705 76.792V73.18H41.6105V76.528C41.6105 77.216 41.7505 77.7 42.0305 77.98C42.3185 78.26 42.6905 78.4 43.1465 78.4C43.7065 78.4 44.1425 78.22 44.4545 77.86C44.7665 77.492 44.9225 76.964 44.9225 76.276V73.192ZM52.9501 76.108C52.9501 75.5 53.0661 74.968 53.2981 74.512C53.5381 74.048 53.8661 73.688 54.2821 73.432C54.7061 73.168 55.1981 73.036 55.7581 73.036C56.4301 73.036 56.9941 73.216 57.4501 73.576C57.9141 73.936 58.2021 74.416 58.3141 75.016H57.4861C57.3741 74.616 57.1621 74.308 56.8501 74.092C56.5381 73.876 56.1781 73.768 55.7701 73.768C55.3861 73.768 55.0421 73.864 54.7381 74.056C54.4341 74.248 54.1941 74.52 54.0181 74.872C53.8501 75.216 53.7661 75.624 53.7661 76.096C53.7661 76.56 53.8461 76.964 54.0061 77.308C54.1661 77.652 54.3901 77.92 54.6781 78.112C54.9741 78.304 55.3181 78.4 55.7101 78.4C56.1501 78.4 56.5301 78.292 56.8501 78.076C57.1701 77.852 57.3861 77.552 57.4981 77.176H58.3381C58.2501 77.568 58.0821 77.912 57.8341 78.208C57.5861 78.504 57.2781 78.736 56.9101 78.904C56.5501 79.064 56.1501 79.144 55.7101 79.144C55.1581 79.144 54.6741 79.02 54.2581 78.772C53.8501 78.516 53.5301 78.16 53.2981 77.704C53.0661 77.248 52.9501 76.716 52.9501 76.108ZM68.0285 79.144C67.4685 79.144 66.9725 79.016 66.5405 78.76C66.1165 78.504 65.7845 78.148 65.5445 77.692C65.3045 77.236 65.1845 76.704 65.1845 76.096C65.1845 75.496 65.3005 74.968 65.5325 74.512C65.7725 74.048 66.1005 73.688 66.5165 73.432C66.9325 73.168 67.4165 73.036 67.9685 73.036C68.4965 73.036 68.9565 73.152 69.3485 73.384C69.7485 73.616 70.0565 73.94 70.2725 74.356C70.4965 74.764 70.6085 75.244 70.6085 75.796V76.204H65.6405L65.6645 75.604H69.7805C69.7805 75.044 69.6125 74.596 69.2765 74.26C68.9485 73.916 68.5125 73.744 67.9685 73.744C67.5685 73.744 67.2165 73.836 66.9125 74.02C66.6165 74.204 66.3885 74.468 66.2285 74.812C66.0685 75.148 65.9885 75.548 65.9885 76.012C65.9885 76.78 66.1645 77.376 66.5165 77.8C66.8765 78.224 67.3845 78.436 68.0405 78.436C68.5125 78.436 68.9005 78.336 69.2045 78.136C69.5085 77.936 69.7125 77.644 69.8165 77.26H70.6085C70.4565 77.868 70.1605 78.336 69.7205 78.664C69.2805 78.984 68.7165 79.144 68.0285 79.144ZM78.2771 79.132C78.0771 79.132 77.9011 79.06 77.7491 78.916C77.5971 78.772 77.5211 78.6 77.5211 78.4C77.5211 78.192 77.5971 78.016 77.7491 77.872C77.9011 77.72 78.0771 77.644 78.2771 77.644C78.4851 77.644 78.6611 77.72 78.8051 77.872C78.9571 78.016 79.0331 78.192 79.0331 78.4C79.0331 78.6 78.9571 78.772 78.8051 78.916C78.6611 79.06 78.4851 79.132 78.2771 79.132ZM87.7537 79H86.8897V70.408H90.0937C90.9577 70.408 91.6377 70.632 92.1337 71.08C92.6377 71.52 92.8897 72.124 92.8897 72.892C92.8897 73.508 92.7337 74.024 92.4217 74.44C92.1177 74.856 91.6897 75.14 91.1377 75.292L92.9737 79H92.0137L90.2617 75.436H87.7537V79ZM87.7537 71.188V74.656H90.1177C90.7097 74.656 91.1697 74.5 91.4977 74.188C91.8337 73.876 92.0017 73.452 92.0017 72.916C92.0017 72.356 91.8297 71.928 91.4857 71.632C91.1417 71.336 90.6777 71.188 90.0937 71.188H87.7537ZM102.4 79.144C101.84 79.144 101.344 79.016 100.912 78.76C100.488 78.504 100.156 78.148 99.9156 77.692C99.6756 77.236 99.5556 76.704 99.5556 76.096C99.5556 75.496 99.6716 74.968 99.9036 74.512C100.144 74.048 100.472 73.688 100.888 73.432C101.304 73.168 101.788 73.036 102.34 73.036C102.868 73.036 103.328 73.152 103.72 73.384C104.12 73.616 104.428 73.94 104.644 74.356C104.868 74.764 104.98 75.244 104.98 75.796V76.204H100.012L100.036 75.604H104.152C104.152 75.044 103.984 74.596 103.648 74.26C103.32 73.916 102.884 73.744 102.34 73.744C101.94 73.744 101.588 73.836 101.284 74.02C100.988 74.204 100.76 74.468 100.6 74.812C100.44 75.148 100.36 75.548 100.36 76.012C100.36 76.78 100.536 77.376 100.888 77.8C101.248 78.224 101.756 78.436 102.412 78.436C102.884 78.436 103.272 78.336 103.576 78.136C103.88 77.936 104.084 77.644 104.188 77.26H104.98C104.828 77.868 104.532 78.336 104.092 78.664C103.652 78.984 103.088 79.144 102.4 79.144ZM111.895 76.108C111.895 75.5 112.011 74.968 112.243 74.512C112.483 74.048 112.811 73.688 113.227 73.432C113.651 73.168 114.143 73.036 114.703 73.036C115.375 73.036 115.939 73.216 116.395 73.576C116.859 73.936 117.147 74.416 117.259 75.016H116.431C116.319 74.616 116.107 74.308 115.795 74.092C115.483 73.876 115.123 73.768 114.715 73.768C114.331 73.768 113.987 73.864 113.683 74.056C113.379 74.248 113.139 74.52 112.963 74.872C112.795 75.216 112.711 75.624 112.711 76.096C112.711 76.56 112.791 76.964 112.951 77.308C113.111 77.652 113.335 77.92 113.623 78.112C113.919 78.304 114.263 78.4 114.655 78.4C115.095 78.4 115.475 78.292 115.795 78.076C116.115 77.852 116.331 77.552 116.443 77.176H117.283C117.195 77.568 117.027 77.912 116.779 78.208C116.531 78.504 116.223 78.736 115.855 78.904C115.495 79.064 115.095 79.144 114.655 79.144C114.103 79.144 113.619 79.02 113.203 78.772C112.795 78.516 112.475 78.16 112.243 77.704C112.011 77.248 111.895 76.716 111.895 76.108ZM124.541 73.192L126.725 79.12L126.113 79.6L123.665 73.192H124.541ZM123.833 81.532V80.848H124.469C124.637 80.848 124.801 80.832 124.961 80.8C125.129 80.776 125.281 80.708 125.417 80.596C125.561 80.484 125.677 80.296 125.765 80.032L128.249 73.192H129.101L126.437 80.332C126.269 80.788 126.041 81.116 125.753 81.316C125.473 81.516 125.125 81.616 124.709 81.616C124.541 81.616 124.385 81.608 124.241 81.592C124.097 81.584 123.961 81.564 123.833 81.532ZM135.45 76.108C135.45 75.5 135.566 74.968 135.798 74.512C136.038 74.048 136.366 73.688 136.782 73.432C137.206 73.168 137.698 73.036 138.258 73.036C138.93 73.036 139.494 73.216 139.95 73.576C140.414 73.936 140.702 74.416 140.814 75.016H139.986C139.874 74.616 139.662 74.308 139.35 74.092C139.038 73.876 138.678 73.768 138.27 73.768C137.886 73.768 137.542 73.864 137.238 74.056C136.934 74.248 136.694 74.52 136.518 74.872C136.35 75.216 136.266 75.624 136.266 76.096C136.266 76.56 136.346 76.964 136.506 77.308C136.666 77.652 136.89 77.92 137.178 78.112C137.474 78.304 137.818 78.4 138.21 78.4C138.65 78.4 139.03 78.292 139.35 78.076C139.67 77.852 139.886 77.552 139.998 77.176H140.838C140.75 77.568 140.582 77.912 140.334 78.208C140.086 78.504 139.778 78.736 139.41 78.904C139.05 79.064 138.65 79.144 138.21 79.144C137.658 79.144 137.174 79.02 136.758 78.772C136.35 78.516 136.03 78.16 135.798 77.704C135.566 77.248 135.45 76.716 135.45 76.108ZM148.957 79H148.129V70.252H148.957V79ZM159.154 79.144C158.594 79.144 158.098 79.016 157.666 78.76C157.242 78.504 156.91 78.148 156.67 77.692C156.43 77.236 156.31 76.704 156.31 76.096C156.31 75.496 156.426 74.968 156.658 74.512C156.898 74.048 157.226 73.688 157.642 73.432C158.058 73.168 158.542 73.036 159.094 73.036C159.622 73.036 160.082 73.152 160.474 73.384C160.874 73.616 161.182 73.94 161.398 74.356C161.622 74.764 161.734 75.244 161.734 75.796V76.204H156.766L156.79 75.604H160.906C160.906 75.044 160.738 74.596 160.402 74.26C160.074 73.916 159.638 73.744 159.094 73.744C158.694 73.744 158.342 73.836 158.038 74.02C157.742 74.204 157.514 74.468 157.354 74.812C157.194 75.148 157.114 75.548 157.114 76.012C157.114 76.78 157.29 77.376 157.642 77.8C158.002 78.224 158.51 78.436 159.166 78.436C159.638 78.436 160.026 78.336 160.33 78.136C160.634 77.936 160.838 77.644 160.942 77.26H161.734C161.582 77.868 161.286 78.336 160.846 78.664C160.406 78.984 159.842 79.144 159.154 79.144ZM169.402 79.132C169.202 79.132 169.026 79.06 168.874 78.916C168.722 78.772 168.646 78.6 168.646 78.4C168.646 78.192 168.722 78.016 168.874 77.872C169.026 77.72 169.202 77.644 169.402 77.644C169.61 77.644 169.786 77.72 169.93 77.872C170.082 78.016 170.158 78.192 170.158 78.4C170.158 78.6 170.082 78.772 169.93 78.916C169.786 79.06 169.61 79.132 169.402 79.132ZM178.879 79H178.015V70.408H181.219C182.083 70.408 182.763 70.632 183.259 71.08C183.763 71.52 184.015 72.124 184.015 72.892C184.015 73.508 183.859 74.024 183.547 74.44C183.243 74.856 182.815 75.14 182.263 75.292L184.099 79H183.139L181.387 75.436H178.879V79ZM178.879 71.188V74.656H181.243C181.835 74.656 182.295 74.5 182.623 74.188C182.959 73.876 183.127 73.452 183.127 72.916C183.127 72.356 182.955 71.928 182.611 71.632C182.267 71.336 181.803 71.188 181.219 71.188H178.879ZM193.525 79.144C192.965 79.144 192.469 79.016 192.037 78.76C191.613 78.504 191.281 78.148 191.041 77.692C190.801 77.236 190.681 76.704 190.681 76.096C190.681 75.496 190.797 74.968 191.029 74.512C191.269 74.048 191.597 73.688 192.013 73.432C192.429 73.168 192.913 73.036 193.465 73.036C193.993 73.036 194.453 73.152 194.845 73.384C195.245 73.616 195.553 73.94 195.769 74.356C195.993 74.764 196.105 75.244 196.105 75.796V76.204H191.137L191.161 75.604H195.277C195.277 75.044 195.109 74.596 194.773 74.26C194.445 73.916 194.009 73.744 193.465 73.744C193.065 73.744 192.713 73.836 192.409 74.02C192.113 74.204 191.885 74.468 191.725 74.812C191.565 75.148 191.485 75.548 191.485 76.012C191.485 76.78 191.661 77.376 192.013 77.8C192.373 78.224 192.881 78.436 193.537 78.436C194.009 78.436 194.397 78.336 194.701 78.136C195.005 77.936 195.209 77.644 195.313 77.26H196.105C195.953 77.868 195.657 78.336 195.217 78.664C194.777 78.984 194.213 79.144 193.525 79.144ZM207.508 73.192H208.336V79H207.616L207.508 78.016C207.348 78.352 207.08 78.624 206.704 78.832C206.336 79.04 205.924 79.144 205.468 79.144C204.788 79.144 204.264 78.928 203.896 78.496C203.536 78.064 203.356 77.496 203.356 76.792V73.18H204.196V76.528C204.196 77.216 204.336 77.7 204.616 77.98C204.904 78.26 205.276 78.4 205.732 78.4C206.292 78.4 206.728 78.22 207.04 77.86C207.352 77.492 207.508 76.964 207.508 76.276V73.192ZM215.452 77.368H216.244C216.244 77.704 216.364 77.972 216.604 78.172C216.844 78.364 217.164 78.46 217.564 78.46C218.012 78.46 218.36 78.372 218.608 78.196C218.864 78.012 218.992 77.764 218.992 77.452C218.992 77.212 218.924 77.02 218.788 76.876C218.652 76.732 218.412 76.616 218.068 76.528L217.072 76.276C216.568 76.148 216.192 75.952 215.944 75.688C215.696 75.424 215.572 75.096 215.572 74.704C215.572 74.368 215.66 74.076 215.836 73.828C216.012 73.572 216.256 73.376 216.568 73.24C216.888 73.104 217.256 73.036 217.672 73.036C218.08 73.036 218.436 73.108 218.74 73.252C219.044 73.396 219.28 73.6 219.448 73.864C219.624 74.12 219.716 74.428 219.724 74.788H218.92C218.912 74.444 218.796 74.18 218.572 73.996C218.348 73.812 218.04 73.72 217.648 73.72C217.24 73.72 216.924 73.804 216.7 73.972C216.484 74.14 216.376 74.38 216.376 74.692C216.376 75.14 216.692 75.444 217.324 75.604L218.32 75.856C218.824 75.984 219.192 76.172 219.424 76.42C219.664 76.668 219.784 77 219.784 77.416C219.784 77.76 219.692 78.064 219.508 78.328C219.324 78.592 219.064 78.796 218.728 78.94C218.4 79.076 218.016 79.144 217.576 79.144C216.928 79.144 216.412 78.984 216.028 78.664C215.644 78.336 215.452 77.904 215.452 77.368ZM229.583 79.144C229.023 79.144 228.527 79.016 228.095 78.76C227.671 78.504 227.339 78.148 227.099 77.692C226.859 77.236 226.739 76.704 226.739 76.096C226.739 75.496 226.855 74.968 227.087 74.512C227.327 74.048 227.655 73.688 228.071 73.432C228.487 73.168 228.971 73.036 229.523 73.036C230.051 73.036 230.511 73.152 230.903 73.384C231.303 73.616 231.611 73.94 231.827 74.356C232.051 74.764 232.163 75.244 232.163 75.796V76.204H227.195L227.219 75.604H231.335C231.335 75.044 231.167 74.596 230.831 74.26C230.503 73.916 230.067 73.744 229.523 73.744C229.123 73.744 228.771 73.836 228.467 74.02C228.171 74.204 227.943 74.468 227.783 74.812C227.623 75.148 227.543 75.548 227.543 76.012C227.543 76.78 227.719 77.376 228.071 77.8C228.431 78.224 228.939 78.436 229.595 78.436C230.067 78.436 230.455 78.336 230.759 78.136C231.063 77.936 231.267 77.644 231.371 77.26H232.163C232.011 77.868 231.715 78.336 231.275 78.664C230.835 78.984 230.271 79.144 229.583 79.144Z" fill="white"/>
<defs>
<clipPath id="clip0_103_1115">
<rect width="234" height="57" fill="white"/>
</clipPath>
</defs>
</svg>
