<svg width="16" height="21" viewBox="0 0 16 21" fill="none" xmlns="http://www.w3.org/2000/svg">
<g clip-path="url(#clip0_184_35)">
<path d="M1.23389 5.64417L2.70233 21H7.87566H13.049L14.5174 5.64417H7.87211H1.23389ZM5.19833 18.6315C5.19122 18.6315 5.18411 18.6315 5.177 18.6315C5.04189 18.6315 4.92811 18.5271 4.91744 18.3867L4.17433 8.50944C4.16366 8.36185 4.27033 8.23587 4.41611 8.22507C4.56189 8.21427 4.68633 8.32226 4.697 8.46984L5.44011 18.3471C5.45078 18.4947 5.34055 18.6207 5.19833 18.6315ZM10.4286 18.3471L11.1717 8.46984C11.1823 8.32226 11.3068 8.21427 11.4526 8.22507C11.5983 8.23587 11.705 8.36545 11.6943 8.50944L10.9512 18.3867C10.9406 18.5271 10.8268 18.6315 10.6917 18.6315C10.6846 18.6315 10.6774 18.6315 10.6703 18.6315C10.5246 18.6207 10.4179 18.4947 10.4286 18.3471ZM8.13522 8.47344V18.3795C8.13522 18.5271 8.01789 18.6459 7.87211 18.6459C7.72633 18.6459 7.609 18.5271 7.609 18.3795V8.47344C7.609 8.32586 7.72633 8.20707 7.87211 8.20707C8.01789 8.21067 8.13522 8.32946 8.13522 8.47344Z" fill="#69A130"/>
<path d="M11.7547 2.21375L11.4204 0L3.69778 1.19866L4.032 3.41241L0 4.03874L0.213333 5.43538L16 2.98406L15.7867 1.58382L11.7547 2.21375ZM10.528 1.23106L10.6489 2.01577L5.03467 2.89047L4.91378 2.10576L10.528 1.23106Z" fill="#69A130"/>
</g>
<defs>
<clipPath id="clip0_184_35">
<rect width="16" height="21" fill="white"/>
</clipPath>
</defs>
</svg>
